<svg xmlns="http://www.w3.org/2000/svg" version="1.1" xmlns:xlink="http://www.w3.org/1999/xlink" xmlns:svgjs="http://svgjs.dev/svgjs" width="100%" height="100%" viewBox="0 0 1000 600"><rect width="1000" height="600" x="0" y="0" fill="#000000"/><g><rect width="333.3333333333333" height="333.3333333333333" y="77.77777587042934" fill="#000000" transform="matrix(2.2499999313354513,0,0,2.2499999313354517,0,-249.99999084472722)" x="55.55555725097656"/><path d="M244.47279174048862 275.14172949576107L244.04762165775037 255.7539737228956Q244.04762165775037 251.07710281277454 238.35034254905742 250.65193273003624L238.35034254905742 250.65193273003624L223.8662150637734 250.65193273003624Q222.22222407718542 250.65193273003624 222.22222407718542 249.6315245314644L222.22222407718542 249.6315245314644Q223.44104498103513 243.70748804531107 226.50226957675073 240.13605935030952Q229.56349417246633 236.56463065530798 231.60431056961008 236.16780524475226L231.60431056961008 236.16780524475226Q237.32993435048553 235.34580975145823 250.39682822664196 235.34580975145823Q263.4353774306158 235.34580975145823 266.72335940379185 235.45918844018846Q269.9829967047853 235.5442224567361 270.8049921980793 236.16780524475226L270.8049921980793 236.16780524475226Q271.5986430191908 237.18821344332414 271.5986430191908 238.52041303590406Q271.5986430191908 239.85261262848397 270.89002621462697 255.44218232888753Q270.18140941006317 271.06009670147364 270.18140941006317 283.41837377306626Q270.18140941006317 295.7483061724763 271.0034049033572 298.92290945692207Q271.82540039665116 302.09751274136784 271.82540039665116 302.8911635624794L271.82540039665116 302.8911635624794Q271.82540039665116 306.1791455356554 266.0997766157757 309.9489869359347Q260.3741528349002 313.7188283362142 248.8662159287842 316.58164022665187Q237.32993435048553 319.44445211708967 223.44104498103513 319.44445211708967L223.44104498103513 319.44445211708967Q204.87528470146367 319.44445211708967 191.21315270947366 306.5759709462111L191.21315270947366 306.5759709462111Q180.58390064101673 296.37188896049236 176.61564653545946 284.3254032829078Q172.6190477577196 272.2789176053233 172.6190477577196 250.45352002475838L172.6190477577196 250.45352002475838Q172.6190477577196 169.44444692702518 232.02948065234835 169.44444692702518L232.02948065234835 169.44444692702518Q242.00680526060663 169.44444692702518 249.9716581439037 171.5702973407166Q257.93651102720077 173.72449242659053 263.94558152990174 179.93197563456937Q269.9829967047853 186.16780351473076 269.9829967047853 195.97506008989373L269.9829967047853 195.97506008989373Q269.9829967047853 201.07710108275305 267.9421803076416 206.37755478089022L267.9421803076416 206.37755478089022Q264.2573729239098 217.1768748824425 251.6156491304917 217.1768748824425L251.6156491304917 217.1768748824425Q244.67120444576648 217.1768748824425 241.09977575076496 213.60544618744095Q237.52834705576342 210.03401749243946 237.52834705576342 203.71315559573034L237.52834705576342 203.71315559573034Q237.52834705576342 201.2755137880309 240.1927462409233 200.65193100001474L240.1927462409233 200.65193100001474Q244.04762165775037 198.41270189759317 244.04762165775037 192.99886951072577Q244.04762165775037 187.58503712385837 239.96598886346288 184.637191216873Q235.8843560691754 181.68934530988759 231.40589786433222 181.68934530988759L231.40589786433222 181.68934530988759Q221.59864128916928 181.68934530988759 214.88095398190447 188.71882401116042Q208.13492200245713 195.7483027124333 205.07369740674153 207.19955027418425L205.07369740674153 207.19955027418425Q199.9716564138822 227.60771424562157 199.9716564138822 248.80952903817038L199.9716564138822 248.80952903817038Q199.9716564138822 283.5034077896139 216.9217703790482 294.95465535136475L216.9217703790482 294.95465535136475Q223.24263227575727 299.433113556208 230.1870769604825 299.433113556208L230.1870769604825 299.433113556208Q243.02721345917848 299.433113556208 243.84920895247248 294.7278979739044L243.84920895247248 294.7278979739044Q244.47279174048862 288.40703607719536 244.47279174048862 275.14172949576107L244.47279174048862 275.14172949576107Z " fill="#ffffff" transform="matrix(2.2499999313354513,0,0,2.2499999313354517,0,-249.99999084472722)"/><path d="MNaN 244.4444461398655 " fill="#000000" transform="matrix(2.2499999313354513,0,0,2.2499999313354517,0,-249.99999084472722)"/></g></svg>